<?xml version="1.0" encoding="UTF-8" standalone="no"?>
<svg
   xmlns:dc="http://purl.org/dc/elements/1.1/"
   xmlns:cc="http://creativecommons.org/ns#"
   xmlns:rdf="http://www.w3.org/1999/02/22-rdf-syntax-ns#"
   xmlns:svg="http://www.w3.org/2000/svg"
   xmlns="http://www.w3.org/2000/svg"
   xmlns:sodipodi="http://sodipodi.sourceforge.net/DTD/sodipodi-0.dtd"
   xmlns:inkscape="http://www.inkscape.org/namespaces/inkscape"
   width="210mm"
   height="297mm"
   viewBox="0 0 210 297"
   version="1.1"
   id="svg8"
   inkscape:version="1.0.2-2 (e86c870879, 2021-01-15)"
   sodipodi:docname="blur.svg">
  <defs
     id="defs2">
    <filter
       inkscape:collect="always"
       style="color-interpolation-filters:sRGB"
       id="filter885"
       x="-0.020630377"
       width="1.0412608"
       y="-0.019941325"
       height="1.0398827">
      <feGaussianBlur
         inkscape:collect="always"
         stdDeviation="1.3040879"
         id="feGaussianBlur887" />
    </filter>
    <filter
       inkscape:collect="always"
       style="color-interpolation-filters:sRGB"
       id="filter885-8"
       x="-0.020630376"
       width="1.0412608"
       y="-0.019941324"
       height="1.0398827">
      <feGaussianBlur
         inkscape:collect="always"
         stdDeviation="1.3040879"
         id="feGaussianBlur887-3" />
    </filter>
    <filter
       inkscape:collect="always"
       style="color-interpolation-filters:sRGB"
       id="filter885-3"
       x="-0.020630376"
       width="1.0412608"
       y="-0.019941324"
       height="1.0398827">
      <feGaussianBlur
         inkscape:collect="always"
         stdDeviation="1.3040879"
         id="feGaussianBlur887-0" />
    </filter>
    <filter
       inkscape:collect="always"
       style="color-interpolation-filters:sRGB"
       id="filter885-8-6"
       x="-0.020630376"
       width="1.0412608"
       y="-0.019941324"
       height="1.0398827">
      <feGaussianBlur
         inkscape:collect="always"
         stdDeviation="1.3040879"
         id="feGaussianBlur887-3-3" />
    </filter>
    <filter
       inkscape:collect="always"
       style="color-interpolation-filters:sRGB"
       id="filter885-8-6-2"
       x="-0.020630376"
       width="1.0412608"
       y="-0.019941324"
       height="1.0398827">
      <feGaussianBlur
         inkscape:collect="always"
         stdDeviation="1.3040879"
         id="feGaussianBlur887-3-3-3" />
    </filter>
  </defs>
  <sodipodi:namedview
     id="base"
     pagecolor="#ffffff"
     bordercolor="#666666"
     borderopacity="1.0"
     inkscape:pageopacity="0.0"
     inkscape:pageshadow="2"
     inkscape:zoom="0.5"
     inkscape:cx="169.70702"
     inkscape:cy="653.93146"
     inkscape:document-units="mm"
     inkscape:current-layer="layer1"
     inkscape:document-rotation="0"
     showgrid="false"
     inkscape:window-width="1543"
     inkscape:window-height="1228"
     inkscape:window-x="69"
     inkscape:window-y="84"
     inkscape:window-maximized="0" />
  <metadata
     id="metadata5">
    <rdf:RDF>
      <cc:Work
         rdf:about="">
        <dc:format>image/svg+xml</dc:format>
        <dc:type
           rdf:resource="http://purl.org/dc/dcmitype/StillImage" />
        <dc:title />
      </cc:Work>
    </rdf:RDF>
  </metadata>
  <g
     inkscape:label="图层 1"
     inkscape:groupmode="layer"
     id="layer1">
    <path
       style="fill:#e8fc5f;fill-opacity:1;stroke:#000000;stroke-width:2.121;stroke-linecap:butt;stroke-linejoin:miter;stroke-miterlimit:4;stroke-dasharray:none;stroke-opacity:1;filter:url(#filter885)"
       d="M 60.114141,83.902908 C 26.936081,111.80369 18.583696,131.16753 31.013444,156.32469 64.576379,224.25431 152.10194,238.59037 140.07295,207.49307 107.96901,124.49811 211.01421,164.66799 177.9881,117.70071 142.58484,70.300011 103.95938,46.861241 60.114141,83.902908 Z"
       id="path835"
       sodipodi:nodetypes="csscc"
       transform="matrix(0.56147325,0,0,0.56147325,-5.7058038,-28.902221)" />
    <path
       style="fill:none;fill-opacity:1;stroke:#000000;stroke-width:2.12121;stroke-linecap:butt;stroke-linejoin:miter;stroke-miterlimit:4;stroke-dasharray:none;stroke-opacity:1;filter:url(#filter885-8)"
       d="M 60.114141,83.902908 C 26.936081,111.80369 18.583696,131.16753 31.013444,156.32469 64.576379,224.25431 152.10194,238.59037 140.07295,207.49307 107.96901,124.49811 211.01421,164.66799 177.9881,117.70071 142.58484,70.300011 103.95938,46.861241 60.114141,83.902908 Z"
       id="path835-1"
       sodipodi:nodetypes="csscc"
       transform="matrix(0.56147325,0,0,0.56147325,99.376842,-30.050863)" />
    <path
       style="fill:#e8fc5f;fill-opacity:1;stroke:none;stroke-width:2.12121;stroke-linecap:butt;stroke-linejoin:miter;stroke-miterlimit:4;stroke-dasharray:none;stroke-opacity:1;filter:url(#filter885-3)"
       d="M 60.114141,83.902908 C 26.936081,111.80369 18.583696,131.16753 31.013444,156.32469 64.576379,224.25431 152.10194,238.59037 140.07295,207.49307 107.96901,124.49811 211.01421,164.66799 177.9881,117.70071 142.58484,70.300011 103.95938,46.861241 60.114141,83.902908 Z"
       id="path835-9"
       sodipodi:nodetypes="csscc"
       transform="matrix(0.56147325,0,0,0.56147325,-2.2987542,64.443185)" />
    <path
       style="fill:none;fill-opacity:1;stroke:#000000;stroke-width:7.12411;stroke-linecap:butt;stroke-linejoin:miter;stroke-miterlimit:4;stroke-dasharray:none;stroke-opacity:1;filter:url(#filter885-8-6)"
       d="M 60.114141,83.902908 C 26.936081,111.80369 18.583696,131.16753 31.013444,156.32469 64.576379,224.25431 152.10194,238.59037 140.07295,207.49307 107.96901,124.49811 211.01421,164.66799 177.9881,117.70071 142.58484,70.300011 103.95938,46.861241 60.114141,83.902908 Z"
       id="path835-1-8"
       sodipodi:nodetypes="csscc"
       transform="matrix(0.56147325,0,0,0.56147325,100.13279,66.711041)" />
    <path
       style="fill:none;fill-opacity:1;stroke:#ff0000;stroke-width:7.12411;stroke-linecap:butt;stroke-linejoin:miter;stroke-miterlimit:4;stroke-dasharray:none;stroke-opacity:1;filter:url(#filter885-8-6-2)"
       d="M 60.114141,83.902908 C 26.936081,111.80369 18.583696,131.16753 31.013444,156.32469 64.576379,224.25431 152.10194,238.59037 140.07295,207.49307 107.96901,124.49811 211.01421,164.66799 177.9881,117.70071 142.58484,70.300011 103.95938,46.861241 60.114141,83.902908 Z"
       id="path835-1-8-7"
       sodipodi:nodetypes="csscc"
       transform="matrix(0.56147325,0,0,0.56147325,0.34707768,164.60688)" />
  </g>
</svg>
